<?xml version="1.0" encoding="UTF-8" standalone="no"?>
<!DOCTYPE svg PUBLIC "-//W3C//DTD SVG 1.1//EN"
 "http://www.w3.org/Graphics/SVG/1.1/DTD/svg11.dtd">
<!-- Generated by graphviz version 12.2.1 (20241206.2353)
 -->
<!-- Title: tt_um_ex_drosen766 Pages: 1 -->
<svg width="2118pt" height="496pt"
 viewBox="0.00 0.00 2117.57 495.50" xmlns="http://www.w3.org/2000/svg" xmlns:xlink="http://www.w3.org/1999/xlink">
<g id="graph0" class="graph" transform="scale(1 1) rotate(0) translate(4 491.5)">
<title>tt_um_ex_drosen766</title>
<polygon fill="white" stroke="none" points="-4,4 -4,-491.5 2113.57,-491.5 2113.57,4 -4,4"/>
<text text-anchor="middle" x="1054.78" y="-7.2" font-family="Times,serif" font-size="14.00">tt_um_ex_drosen766</text>
<!-- n6 -->
<g id="node1" class="node">
<title>n6</title>
<polygon fill="none" stroke="black" points="346.51,-60.5 287.64,-42.5 346.51,-24.5 405.38,-42.5 346.51,-60.5"/>
<text text-anchor="middle" x="346.51" y="-37.45" font-family="Times,serif" font-size="14.00">_unused</text>
</g>
<!-- n7 -->
<g id="node2" class="node">
<title>n7</title>
<polygon fill="none" stroke="black" points="53.91,-252.5 20.37,-234.5 53.91,-216.5 87.45,-234.5 53.91,-252.5"/>
<text text-anchor="middle" x="53.91" y="-229.45" font-family="Times,serif" font-size="14.00">fire</text>
</g>
<!-- c26 -->
<g id="node19" class="node">
<title>c26</title>
<polygon fill="none" stroke="black" points="297.01,-213.75 297.01,-287.25 396.01,-287.25 396.01,-213.75 297.01,-213.75"/>
<text text-anchor="middle" x="309.89" y="-269.95" font-family="Times,serif" font-size="14.00">A</text>
<polyline fill="none" stroke="black" points="297.01,-262.75 322.76,-262.75"/>
<text text-anchor="middle" x="309.89" y="-245.45" font-family="Times,serif" font-size="14.00">B</text>
<polyline fill="none" stroke="black" points="297.01,-238.25 322.76,-238.25"/>
<text text-anchor="middle" x="309.89" y="-220.95" font-family="Times,serif" font-size="14.00">S</text>
<polyline fill="none" stroke="black" points="322.76,-213.75 322.76,-287.25"/>
<text text-anchor="middle" x="346.51" y="-253.7" font-family="Times,serif" font-size="14.00">$12</text>
<text text-anchor="middle" x="346.51" y="-237.2" font-family="Times,serif" font-size="14.00">$mux</text>
<polyline fill="none" stroke="black" points="370.26,-213.75 370.26,-287.25"/>
<text text-anchor="middle" x="383.14" y="-245.45" font-family="Times,serif" font-size="14.00">Y</text>
</g>
<!-- n7&#45;&gt;c26 -->
<g id="edge28" class="edge">
<title>n7:e&#45;&gt;c26:w</title>
<path fill="none" stroke="black" d="M89.46,-234.5C177.58,-234.5 201.88,-249.15 284.52,-250.41"/>
<polygon fill="black" stroke="black" points="284.47,-253.91 294.5,-250.49 284.52,-246.91 284.47,-253.91"/>
</g>
<!-- c31 -->
<g id="node22" class="node">
<title>c31</title>
<polygon fill="none" stroke="black" points="148.23,-262.75 148.23,-336.25 247.23,-336.25 247.23,-262.75 148.23,-262.75"/>
<text text-anchor="middle" x="161.11" y="-318.95" font-family="Times,serif" font-size="14.00">A</text>
<polyline fill="none" stroke="black" points="148.23,-311.75 173.98,-311.75"/>
<text text-anchor="middle" x="161.11" y="-294.45" font-family="Times,serif" font-size="14.00">B</text>
<polyline fill="none" stroke="black" points="148.23,-287.25 173.98,-287.25"/>
<text text-anchor="middle" x="161.11" y="-269.95" font-family="Times,serif" font-size="14.00">S</text>
<polyline fill="none" stroke="black" points="173.98,-262.75 173.98,-336.25"/>
<text text-anchor="middle" x="197.73" y="-302.7" font-family="Times,serif" font-size="14.00">$9</text>
<text text-anchor="middle" x="197.73" y="-286.2" font-family="Times,serif" font-size="14.00">$mux</text>
<polyline fill="none" stroke="black" points="221.48,-262.75 221.48,-336.25"/>
<text text-anchor="middle" x="234.36" y="-294.45" font-family="Times,serif" font-size="14.00">Y</text>
</g>
<!-- n7&#45;&gt;c31 -->
<g id="edge29" class="edge">
<title>n7:e&#45;&gt;c31:w</title>
<path fill="none" stroke="black" d="M89.46,-234.5C116.4,-234.5 116.54,-264.41 135.95,-272.82"/>
<polygon fill="black" stroke="black" points="135.26,-276.25 145.75,-274.71 136.59,-269.38 135.26,-276.25"/>
</g>
<!-- n8 -->
<g id="node3" class="node">
<title>n8</title>
<polygon fill="none" stroke="black" points="1924.74,-245.5 1875.28,-227.5 1924.74,-209.5 1974.2,-227.5 1924.74,-245.5"/>
<text text-anchor="middle" x="1924.74" y="-222.45" font-family="Times,serif" font-size="14.00">leaked</text>
</g>
<!-- n8&#45;&gt;c31 -->
<g id="edge31" class="edge">
<title>n8:e&#45;&gt;c31:w</title>
<path fill="none" stroke="black" stroke-width="3" d="M1976.43,-227.5C2056.16,-227.5 1726.65,-369.5 1646.92,-369.5 494.01,-369.5 494.01,-369.5 494.01,-369.5 401.9,-369.5 379.14,-361.06 287.64,-350.5 271.59,-348.65 267.7,-347.29 251.64,-345.5 228.72,-342.94 164.49,-353.11 148.23,-336.75 147.86,-336.37 147.49,-335.95 147.15,-335.5"/>
<polygon fill="black" stroke="black" stroke-width="3" points="150.62,-338.57 147.2,-328.54 143.62,-338.51 150.62,-338.57"/>
</g>
<!-- c33 -->
<g id="node25" class="node">
<title>c33</title>
<polygon fill="none" stroke="black" points="2014.65,-64 2014.65,-113 2101.65,-113 2101.65,-64 2014.65,-64"/>
<text text-anchor="middle" x="2027.52" y="-95.7" font-family="Times,serif" font-size="14.00">A</text>
<polyline fill="none" stroke="black" points="2014.65,-88.5 2040.4,-88.5"/>
<text text-anchor="middle" x="2027.52" y="-71.2" font-family="Times,serif" font-size="14.00">B</text>
<polyline fill="none" stroke="black" points="2040.4,-64 2040.4,-113"/>
<text text-anchor="middle" x="2058.15" y="-91.7" font-family="Times,serif" font-size="14.00">$6</text>
<text text-anchor="middle" x="2058.15" y="-75.2" font-family="Times,serif" font-size="14.00">$ge</text>
<polyline fill="none" stroke="black" points="2075.9,-64 2075.9,-113"/>
<text text-anchor="middle" x="2088.77" y="-83.7" font-family="Times,serif" font-size="14.00">Y</text>
</g>
<!-- n8&#45;&gt;c33 -->
<g id="edge32" class="edge">
<title>n8:e&#45;&gt;c33:w</title>
<path fill="none" stroke="black" stroke-width="3" d="M1976.43,-227.5C2030.9,-227.5 1966.84,-118.87 2003.72,-102.74"/>
<polygon fill="black" stroke="black" stroke-width="3" points="2000.97,-106.8 2010.18,-101.56 1999.71,-99.91 2000.97,-106.8"/>
</g>
<!-- n9 -->
<g id="node4" class="node">
<title>n9</title>
<polygon fill="none" stroke="black" points="1499.31,-265.5 1442.61,-247.5 1499.31,-229.5 1556,-247.5 1499.31,-265.5"/>
<text text-anchor="middle" x="1499.31" y="-242.45" font-family="Times,serif" font-size="14.00">charged</text>
</g>
<!-- c35 -->
<g id="node29" class="node">
<title>c35</title>
<polygon fill="none" stroke="black" points="1599.42,-203 1599.42,-252 1692.42,-252 1692.42,-203 1599.42,-203"/>
<text text-anchor="middle" x="1612.29" y="-234.7" font-family="Times,serif" font-size="14.00">A</text>
<polyline fill="none" stroke="black" points="1599.42,-227.5 1625.17,-227.5"/>
<text text-anchor="middle" x="1612.29" y="-210.2" font-family="Times,serif" font-size="14.00">B</text>
<polyline fill="none" stroke="black" points="1625.17,-203 1625.17,-252"/>
<text text-anchor="middle" x="1645.92" y="-230.7" font-family="Times,serif" font-size="14.00">$4</text>
<text text-anchor="middle" x="1645.92" y="-214.2" font-family="Times,serif" font-size="14.00">$sub</text>
<polyline fill="none" stroke="black" points="1666.67,-203 1666.67,-252"/>
<text text-anchor="middle" x="1679.54" y="-222.7" font-family="Times,serif" font-size="14.00">Y</text>
</g>
<!-- n9&#45;&gt;c35 -->
<g id="edge34" class="edge">
<title>n9:e&#45;&gt;c35:w</title>
<path fill="none" stroke="black" stroke-width="3" d="M1556,-247.5C1570.67,-247.5 1576.51,-242.96 1587.04,-240.83"/>
<polygon fill="black" stroke="black" stroke-width="3" points="1584.27,-244.61 1593.89,-240.18 1583.61,-237.64 1584.27,-244.61"/>
</g>
<!-- c36 -->
<g id="node31" class="node">
<title>c36</title>
<polygon fill="none" stroke="black" points="1603.54,-135 1603.54,-184 1688.29,-184 1688.29,-135 1603.54,-135"/>
<text text-anchor="middle" x="1616.42" y="-166.7" font-family="Times,serif" font-size="14.00">A</text>
<polyline fill="none" stroke="black" points="1603.54,-159.5 1629.29,-159.5"/>
<text text-anchor="middle" x="1616.42" y="-142.2" font-family="Times,serif" font-size="14.00">B</text>
<polyline fill="none" stroke="black" points="1629.29,-135 1629.29,-184"/>
<text text-anchor="middle" x="1645.92" y="-162.7" font-family="Times,serif" font-size="14.00">$3</text>
<text text-anchor="middle" x="1645.92" y="-146.2" font-family="Times,serif" font-size="14.00">$gt</text>
<polyline fill="none" stroke="black" points="1662.54,-135 1662.54,-184"/>
<text text-anchor="middle" x="1675.42" y="-154.7" font-family="Times,serif" font-size="14.00">Y</text>
</g>
<!-- n9&#45;&gt;c36 -->
<g id="edge35" class="edge">
<title>n9:e&#45;&gt;c36:w</title>
<path fill="none" stroke="black" stroke-width="3" d="M1556,-247.5C1591.04,-247.5 1569.46,-187.94 1591.67,-174.45"/>
<polygon fill="black" stroke="black" stroke-width="3" points="1589.27,-178.65 1598.13,-172.84 1587.58,-171.85 1589.27,-178.65"/>
</g>
<!-- n10 -->
<g id="node5" class="node">
<title>n10</title>
<polygon fill="none" stroke="black" points="1060.23,-213.5 992.68,-195.5 1060.23,-177.5 1127.79,-195.5 1060.23,-213.5"/>
<text text-anchor="middle" x="1060.23" y="-190.45" font-family="Times,serif" font-size="14.00">integrated</text>
</g>
<!-- x7 -->
<g id="node34" class="node">
<title>x7</title>
<path fill="none" stroke="black" d="M1198.45,-174.5C1198.45,-174.5 1236.95,-174.5 1236.95,-174.5 1242.95,-174.5 1248.95,-180.5 1248.95,-186.5 1248.95,-186.5 1248.95,-198.5 1248.95,-198.5 1248.95,-204.5 1242.95,-210.5 1236.95,-210.5 1236.95,-210.5 1198.45,-210.5 1198.45,-210.5 1192.45,-210.5 1186.45,-204.5 1186.45,-198.5 1186.45,-198.5 1186.45,-186.5 1186.45,-186.5 1186.45,-180.5 1192.45,-174.5 1198.45,-174.5"/>
<text text-anchor="middle" x="1217.7" y="-187.7" font-family="Times,serif" font-size="14.00">8:8 &#45; 0:0</text>
</g>
<!-- n10&#45;&gt;x7 -->
<g id="edge7" class="edge">
<title>n10:e&#45;&gt;x7:w</title>
<path fill="none" stroke="black" d="M1127.79,-195.5C1149.23,-195.5 1157.19,-193.58 1174.21,-192.95"/>
<polygon fill="black" stroke="black" points="1174,-196.45 1183.93,-192.78 1173.87,-189.45 1174,-196.45"/>
</g>
<!-- x9 -->
<g id="node35" class="node">
<title>x9</title>
<path fill="none" stroke="black" d="M1198.45,-284.5C1198.45,-284.5 1236.95,-284.5 1236.95,-284.5 1242.95,-284.5 1248.95,-290.5 1248.95,-296.5 1248.95,-296.5 1248.95,-308.5 1248.95,-308.5 1248.95,-314.5 1242.95,-320.5 1236.95,-320.5 1236.95,-320.5 1198.45,-320.5 1198.45,-320.5 1192.45,-320.5 1186.45,-314.5 1186.45,-308.5 1186.45,-308.5 1186.45,-296.5 1186.45,-296.5 1186.45,-290.5 1192.45,-284.5 1198.45,-284.5"/>
<text text-anchor="middle" x="1217.7" y="-297.7" font-family="Times,serif" font-size="14.00">7:0 &#45; 7:0</text>
</g>
<!-- n10&#45;&gt;x9 -->
<g id="edge8" class="edge">
<title>n10:e&#45;&gt;x9:w</title>
<path fill="none" stroke="black" stroke-width="3" d="M1127.79,-195.5C1177.47,-195.5 1138.92,-285.88 1174.13,-300.7"/>
<polygon fill="black" stroke="black" stroke-width="3" points="1170.52,-303.61 1180.98,-301.94 1171.76,-296.72 1170.52,-303.61"/>
</g>
<!-- n11 -->
<g id="node6" class="node">
<title>n11</title>
<polygon fill="none" stroke="black" points="656.53,-321.5 613.58,-303.5 656.53,-285.5 699.47,-303.5 656.53,-321.5"/>
<text text-anchor="middle" x="656.53" y="-298.45" font-family="Times,serif" font-size="14.00">spike</text>
</g>
<!-- x17 -->
<g id="node44" class="node">
<title>x17</title>
<path fill="none" stroke="black" d="M776.43,-291C776.43,-291 814.93,-291 814.93,-291 820.93,-291 826.93,-297 826.93,-303 826.93,-303 826.93,-328 826.93,-328 826.93,-334 820.93,-340 814.93,-340 814.93,-340 776.43,-340 776.43,-340 770.43,-340 764.43,-334 764.43,-328 764.43,-328 764.43,-303 764.43,-303 764.43,-297 770.43,-291 776.43,-291"/>
<text text-anchor="middle" x="795.68" y="-322.7" font-family="Times,serif" font-size="14.00">0 &#45;&gt; 7:1</text>
<polyline fill="none" stroke="black" points="764.43,-315.5 826.93,-315.5"/>
<text text-anchor="middle" x="795.68" y="-298.2" font-family="Times,serif" font-size="14.00">0:0 &#45; 0:0</text>
</g>
<!-- n11&#45;&gt;x17 -->
<g id="edge10" class="edge">
<title>n11:e&#45;&gt;x17:w</title>
<path fill="none" stroke="black" d="M701.77,-303.5C725.37,-303.5 733.97,-303.32 753.01,-303.27"/>
<polygon fill="black" stroke="black" points="752.92,-306.77 762.91,-303.25 752.91,-299.77 752.92,-306.77"/>
</g>
<!-- n12 -->
<g id="node7" class="node">
<title>n12</title>
<polygon fill="none" stroke="black" points="656.53,-237.5 584.63,-219.5 656.53,-201.5 728.43,-219.5 656.53,-237.5"/>
<text text-anchor="middle" x="656.53" y="-214.45" font-family="Times,serif" font-size="14.00">membrane</text>
</g>
<!-- x11 -->
<g id="node38" class="node">
<title>x11</title>
<path fill="none" stroke="black" d="M776.43,-190C776.43,-190 814.93,-190 814.93,-190 820.93,-190 826.93,-196 826.93,-202 826.93,-202 826.93,-227 826.93,-227 826.93,-233 820.93,-239 814.93,-239 814.93,-239 776.43,-239 776.43,-239 770.43,-239 764.43,-233 764.43,-227 764.43,-227 764.43,-202 764.43,-202 764.43,-196 770.43,-190 776.43,-190"/>
<text text-anchor="middle" x="795.68" y="-221.7" font-family="Times,serif" font-size="14.00">0 &#45;&gt; 8:8</text>
<polyline fill="none" stroke="black" points="764.43,-214.5 826.93,-214.5"/>
<text text-anchor="middle" x="795.68" y="-197.2" font-family="Times,serif" font-size="14.00">7:0 &#45; 7:0</text>
</g>
<!-- n12&#45;&gt;x11 -->
<g id="edge12" class="edge">
<title>n12:e&#45;&gt;x11:w</title>
<path fill="none" stroke="black" stroke-width="3" d="M728.43,-219.5C741.59,-219.5 745.27,-210 753.55,-205.1"/>
<polygon fill="black" stroke="black" stroke-width="3" points="751.25,-209.32 760.03,-203.4 749.47,-202.55 751.25,-209.32"/>
</g>
<!-- x16 -->
<g id="node43" class="node">
<title>x16</title>
<ellipse fill="black" stroke="black" cx="795.68" cy="-259.5" rx="1.8" ry="1.8"/>
</g>
<!-- n12&#45;&gt;x16 -->
<g id="edge13" class="edge">
<title>n12:e&#45;&gt;x16:w</title>
<path fill="none" stroke="black" stroke-width="3" d="M728.43,-219.5C748.97,-219.5 746.66,-238.18 764.43,-248.5 771.83,-252.8 775.74,-256.1 781.11,-257.93"/>
<polygon fill="black" stroke="black" stroke-width="3" points="777.51,-260.96 787.9,-258.87 778.48,-254.02 777.51,-260.96"/>
</g>
<!-- n13 -->
<g id="node8" class="node">
<title>n13</title>
<polygon fill="none" stroke="black" points="229.49,-127.04 229.49,-141.96 210.89,-152.5 184.58,-152.5 165.97,-141.96 165.97,-127.04 184.58,-116.5 210.89,-116.5 229.49,-127.04"/>
<text text-anchor="middle" x="197.73" y="-129.45" font-family="Times,serif" font-size="14.00">rst_n</text>
</g>
<!-- c25 -->
<g id="node17" class="node">
<title>c25</title>
<polygon fill="none" stroke="black" points="297.01,-120.75 297.01,-194.25 396.01,-194.25 396.01,-120.75 297.01,-120.75"/>
<text text-anchor="middle" x="309.89" y="-176.95" font-family="Times,serif" font-size="14.00">A</text>
<polyline fill="none" stroke="black" points="297.01,-169.75 322.76,-169.75"/>
<text text-anchor="middle" x="309.89" y="-152.45" font-family="Times,serif" font-size="14.00">B</text>
<polyline fill="none" stroke="black" points="297.01,-145.25 322.76,-145.25"/>
<text text-anchor="middle" x="309.89" y="-127.95" font-family="Times,serif" font-size="14.00">S</text>
<polyline fill="none" stroke="black" points="322.76,-120.75 322.76,-194.25"/>
<text text-anchor="middle" x="346.51" y="-160.7" font-family="Times,serif" font-size="14.00">$15</text>
<text text-anchor="middle" x="346.51" y="-144.2" font-family="Times,serif" font-size="14.00">$mux</text>
<polyline fill="none" stroke="black" points="370.26,-120.75 370.26,-194.25"/>
<text text-anchor="middle" x="383.14" y="-152.45" font-family="Times,serif" font-size="14.00">Y</text>
</g>
<!-- n13&#45;&gt;c25 -->
<g id="edge14" class="edge">
<title>n13:e&#45;&gt;c25:w</title>
<path fill="none" stroke="black" d="M230.79,-134.5C255.59,-134.5 264.47,-133.4 284.67,-133.08"/>
<polygon fill="black" stroke="black" points="284.52,-136.59 294.5,-133.01 284.47,-129.59 284.52,-136.59"/>
</g>
<!-- n13&#45;&gt;c26 -->
<g id="edge15" class="edge">
<title>n13:e&#45;&gt;c26:w</title>
<path fill="none" stroke="black" d="M230.79,-134.5C276.44,-134.5 251.4,-210.95 284.9,-224.09"/>
<polygon fill="black" stroke="black" points="284.07,-227.5 294.52,-225.74 285.26,-220.6 284.07,-227.5"/>
</g>
<!-- n14 -->
<g id="node9" class="node">
<title>n14</title>
<polygon fill="none" stroke="black" points="373.51,-316.04 373.51,-330.96 357.7,-341.5 335.33,-341.5 319.51,-330.96 319.51,-316.04 335.33,-305.5 357.7,-305.5 373.51,-316.04"/>
<text text-anchor="middle" x="346.51" y="-318.45" font-family="Times,serif" font-size="14.00">clk</text>
</g>
<!-- c30 -->
<g id="node20" class="node">
<title>c30</title>
<polygon fill="none" stroke="black" points="441.38,-279 441.38,-328 548.63,-328 548.63,-279 441.38,-279"/>
<text text-anchor="middle" x="462.88" y="-310.7" font-family="Times,serif" font-size="14.00">CLK</text>
<polyline fill="none" stroke="black" points="441.38,-303.5 484.38,-303.5"/>
<text text-anchor="middle" x="462.88" y="-286.2" font-family="Times,serif" font-size="14.00">D</text>
<polyline fill="none" stroke="black" points="484.38,-279 484.38,-328"/>
<text text-anchor="middle" x="503.63" y="-306.7" font-family="Times,serif" font-size="14.00">$18</text>
<text text-anchor="middle" x="503.63" y="-290.2" font-family="Times,serif" font-size="14.00">$dff</text>
<polyline fill="none" stroke="black" points="522.88,-279 522.88,-328"/>
<text text-anchor="middle" x="535.76" y="-298.7" font-family="Times,serif" font-size="14.00">Q</text>
</g>
<!-- n14&#45;&gt;c30 -->
<g id="edge16" class="edge">
<title>n14:e&#45;&gt;c30:w</title>
<path fill="none" stroke="black" d="M374.76,-323.5C400.38,-323.5 409.15,-317.78 430.03,-316.17"/>
<polygon fill="black" stroke="black" points="430,-319.67 439.87,-315.81 429.75,-312.67 430,-319.67"/>
</g>
<!-- c32 -->
<g id="node23" class="node">
<title>c32</title>
<polygon fill="none" stroke="black" points="441.38,-195 441.38,-244 548.63,-244 548.63,-195 441.38,-195"/>
<text text-anchor="middle" x="462.88" y="-226.7" font-family="Times,serif" font-size="14.00">CLK</text>
<polyline fill="none" stroke="black" points="441.38,-219.5 484.38,-219.5"/>
<text text-anchor="middle" x="462.88" y="-202.2" font-family="Times,serif" font-size="14.00">D</text>
<polyline fill="none" stroke="black" points="484.38,-195 484.38,-244"/>
<text text-anchor="middle" x="503.63" y="-222.7" font-family="Times,serif" font-size="14.00">$17</text>
<text text-anchor="middle" x="503.63" y="-206.2" font-family="Times,serif" font-size="14.00">$dff</text>
<polyline fill="none" stroke="black" points="522.88,-195 522.88,-244"/>
<text text-anchor="middle" x="535.76" y="-214.7" font-family="Times,serif" font-size="14.00">Q</text>
</g>
<!-- n14&#45;&gt;c32 -->
<g id="edge17" class="edge">
<title>n14:e&#45;&gt;c32:w</title>
<path fill="none" stroke="black" d="M374.76,-323.5C392.91,-323.5 394,-310.63 405.38,-296.5 423.12,-274.46 412.64,-242.48 430.24,-233.92"/>
<polygon fill="black" stroke="black" points="430.75,-237.39 439.9,-232.04 429.41,-230.52 430.75,-237.39"/>
</g>
<!-- n15 -->
<g id="node10" class="node">
<title>n15</title>
<polygon fill="none" stroke="black" points="80.91,-350.04 80.91,-364.96 65.09,-375.5 42.73,-375.5 26.91,-364.96 26.91,-350.04 42.73,-339.5 65.09,-339.5 80.91,-350.04"/>
<text text-anchor="middle" x="53.91" y="-352.45" font-family="Times,serif" font-size="14.00">ena</text>
</g>
<!-- n16 -->
<g id="node11" class="node">
<title>n16</title>
<polygon fill="none" stroke="black" points="385.47,-408.04 385.47,-422.96 362.65,-433.5 330.37,-433.5 307.55,-422.96 307.55,-408.04 330.37,-397.5 362.65,-397.5 385.47,-408.04"/>
<text text-anchor="middle" x="346.51" y="-410.45" font-family="Times,serif" font-size="14.00">uio_oe</text>
</g>
<!-- n17 -->
<g id="node12" class="node">
<title>n17</title>
<polygon fill="none" stroke="black" points="952.09,-252.04 952.09,-266.96 927.32,-277.5 892.29,-277.5 867.52,-266.96 867.52,-252.04 892.29,-241.5 927.32,-241.5 952.09,-252.04"/>
<text text-anchor="middle" x="909.8" y="-254.45" font-family="Times,serif" font-size="14.00">uio_out</text>
</g>
<!-- n18 -->
<g id="node13" class="node">
<title>n18</title>
<polygon fill="none" stroke="black" points="91.21,-462.04 91.21,-476.96 69.36,-487.5 38.46,-487.5 16.61,-476.96 16.61,-462.04 38.46,-451.5 69.36,-451.5 91.21,-462.04"/>
<text text-anchor="middle" x="53.91" y="-464.45" font-family="Times,serif" font-size="14.00">uio_in</text>
</g>
<!-- n19 -->
<g id="node14" class="node">
<title>n19</title>
<polygon fill="none" stroke="black" points="949.32,-308.04 949.32,-322.96 926.17,-333.5 893.43,-333.5 870.29,-322.96 870.29,-308.04 893.43,-297.5 926.17,-297.5 949.32,-308.04"/>
<text text-anchor="middle" x="909.8" y="-310.45" font-family="Times,serif" font-size="14.00">uo_out</text>
</g>
<!-- n20 -->
<g id="node15" class="node">
<title>n20</title>
<polygon fill="none" stroke="black" points="688.84,-127.04 688.84,-141.96 669.91,-152.5 643.14,-152.5 624.21,-141.96 624.21,-127.04 643.14,-116.5 669.91,-116.5 688.84,-127.04"/>
<text text-anchor="middle" x="656.53" y="-129.45" font-family="Times,serif" font-size="14.00">ui_in</text>
</g>
<!-- x10 -->
<g id="node37" class="node">
<title>x10</title>
<path fill="none" stroke="black" d="M776.43,-122C776.43,-122 814.93,-122 814.93,-122 820.93,-122 826.93,-128 826.93,-134 826.93,-134 826.93,-159 826.93,-159 826.93,-165 820.93,-171 814.93,-171 814.93,-171 776.43,-171 776.43,-171 770.43,-171 764.43,-165 764.43,-159 764.43,-159 764.43,-134 764.43,-134 764.43,-128 770.43,-122 776.43,-122"/>
<text text-anchor="middle" x="795.68" y="-153.7" font-family="Times,serif" font-size="14.00">0 &#45;&gt; 8:8</text>
<polyline fill="none" stroke="black" points="764.43,-146.5 826.93,-146.5"/>
<text text-anchor="middle" x="795.68" y="-129.2" font-family="Times,serif" font-size="14.00">7:0 &#45; 7:0</text>
</g>
<!-- n20&#45;&gt;x10 -->
<g id="edge22" class="edge">
<title>n20:e&#45;&gt;x10:w</title>
<path fill="none" stroke="black" stroke-width="3" d="M690.15,-134.5C719.03,-134.5 728.96,-134.31 753.11,-134.26"/>
<polygon fill="black" stroke="black" stroke-width="3" points="749.89,-137.76 759.89,-134.25 749.88,-130.76 749.89,-137.76"/>
</g>
<!-- v0 -->
<g id="node16" class="node">
<title>v0</title>
<ellipse fill="none" stroke="black" cx="197.73" cy="-188.5" rx="53.91" ry="18"/>
<text text-anchor="middle" x="197.73" y="-183.45" font-family="Times,serif" font-size="14.00">8&#39;00000000</text>
</g>
<!-- v0&#45;&gt;c25 -->
<g id="edge36" class="edge">
<title>v0:e&#45;&gt;c25:w</title>
<path fill="none" stroke="black" stroke-width="3" d="M251.64,-188.5C267.21,-188.5 273.37,-184.53 284.82,-182.8"/>
<polygon fill="black" stroke="black" stroke-width="3" points="281.76,-186.52 291.48,-182.32 281.26,-179.54 281.76,-186.52"/>
</g>
<!-- c25&#45;&gt;c32 -->
<g id="edge24" class="edge">
<title>c25:e&#45;&gt;c32:w</title>
<path fill="none" stroke="black" stroke-width="3" d="M397.01,-157.5C422.01,-157.5 415.32,-192.92 430.41,-203.99"/>
<polygon fill="black" stroke="black" stroke-width="3" points="426.45,-206.46 437.03,-205.95 428.44,-199.75 426.45,-206.46"/>
</g>
<!-- v1 -->
<g id="node18" class="node">
<title>v1</title>
<ellipse fill="none" stroke="black" cx="197.73" cy="-372.5" rx="27" ry="18"/>
<text text-anchor="middle" x="197.73" y="-367.45" font-family="Times,serif" font-size="14.00">1&#39;0</text>
</g>
<!-- v1&#45;&gt;c26 -->
<g id="edge37" class="edge">
<title>v1:e&#45;&gt;c26:w</title>
<path fill="none" stroke="black" d="M225.98,-372.5C275.17,-372.5 247.84,-289.64 285.07,-276.69"/>
<polygon fill="black" stroke="black" points="285.17,-280.22 294.52,-275.23 284.1,-273.3 285.17,-280.22"/>
</g>
<!-- c26&#45;&gt;c30 -->
<g id="edge5" class="edge">
<title>c26:e&#45;&gt;c30:w</title>
<path fill="none" stroke="black" d="M397.01,-250.5C419.18,-250.5 416.7,-278.45 430.4,-288.05"/>
<polygon fill="black" stroke="black" points="429.35,-291.39 439.93,-290.83 431.3,-284.67 429.35,-291.39"/>
</g>
<!-- c30&#45;&gt;n11 -->
<g id="edge9" class="edge">
<title>c30:e&#45;&gt;n11:w</title>
<path fill="none" stroke="black" d="M548.63,-303.75C572.24,-303.75 580.84,-303.57 599.87,-303.52"/>
<polygon fill="black" stroke="black" points="599.78,-307.02 609.78,-303.5 599.77,-300.02 599.78,-307.02"/>
</g>
<!-- v2 -->
<g id="node21" class="node">
<title>v2</title>
<ellipse fill="none" stroke="black" cx="53.91" cy="-299.5" rx="53.91" ry="18"/>
<text text-anchor="middle" x="53.91" y="-294.45" font-family="Times,serif" font-size="14.00">8&#39;00000000</text>
</g>
<!-- v2&#45;&gt;c31 -->
<g id="edge40" class="edge">
<title>v2:e&#45;&gt;c31:w</title>
<path fill="none" stroke="black" stroke-width="3" d="M107.82,-299.5C120.82,-299.5 126.58,-299.5 135.85,-299.5"/>
<polygon fill="black" stroke="black" stroke-width="3" points="132.69,-303 142.69,-299.5 132.69,-296 132.69,-303"/>
</g>
<!-- c31&#45;&gt;c25 -->
<g id="edge25" class="edge">
<title>c31:e&#45;&gt;c25:w</title>
<path fill="none" stroke="black" stroke-width="3" d="M248.23,-299.5C310.4,-299.5 240.09,-175.73 284.67,-159.3"/>
<polygon fill="black" stroke="black" stroke-width="3" points="282.2,-163.23 291.53,-158.21 281.1,-156.32 282.2,-163.23"/>
</g>
<!-- c32&#45;&gt;n12 -->
<g id="edge11" class="edge">
<title>c32:e&#45;&gt;n12:w</title>
<path fill="none" stroke="black" stroke-width="3" d="M548.63,-219.75C560.01,-219.75 565.32,-219.62 573.18,-219.55"/>
<polygon fill="black" stroke="black" stroke-width="3" points="570.11,-223.06 580.09,-219.52 570.07,-216.06 570.11,-223.06"/>
</g>
<!-- v3 -->
<g id="node24" class="node">
<title>v3</title>
<ellipse fill="none" stroke="black" cx="1924.74" cy="-42.5" rx="53.91" ry="18"/>
<text text-anchor="middle" x="1924.74" y="-37.45" font-family="Times,serif" font-size="14.00">8&#39;10000000</text>
</g>
<!-- v3&#45;&gt;c33 -->
<g id="edge41" class="edge">
<title>v3:e&#45;&gt;c33:w</title>
<path fill="none" stroke="black" stroke-width="3" d="M1978.65,-42.5C1995.78,-42.5 1994.73,-63.1 2003.91,-72.11"/>
<polygon fill="black" stroke="black" stroke-width="3" points="1999.82,-74.29 2010.41,-74.62 2002.34,-67.76 1999.82,-74.29"/>
</g>
<!-- c33&#45;&gt;n7 -->
<g id="edge27" class="edge">
<title>c33:e&#45;&gt;n7:w</title>
<path fill="none" stroke="black" d="M2102.65,-88.75C2113.66,-88.75 2109.59,-105.87 2101.65,-113.5 2073.76,-140.28 2053.26,-115.61 2014.65,-113.5 1912.72,-107.94 1888.41,-88.5 1786.33,-88.5 345.51,-88.5 345.51,-88.5 345.51,-88.5 255.47,-88.5 215.66,-53.23 143.82,-107.5 88.65,-149.18 144.51,-213.46 87.45,-252.5 62.47,-269.59 41.35,-273.29 19.36,-252.5 17.36,-250.61 15.67,-247.89 14.64,-245.14"/>
<polygon fill="black" stroke="black" points="17.86,-246.52 17.86,-235.93 11.26,-244.21 17.86,-246.52"/>
</g>
<!-- v4 -->
<g id="node26" class="node">
<title>v4</title>
<ellipse fill="none" stroke="black" cx="1645.92" cy="-288.5" rx="53.91" ry="18"/>
<text text-anchor="middle" x="1645.92" y="-283.45" font-family="Times,serif" font-size="14.00">8&#39;00000000</text>
</g>
<!-- c34 -->
<g id="node27" class="node">
<title>c34</title>
<polygon fill="none" stroke="black" points="1735.83,-190.75 1735.83,-264.25 1834.83,-264.25 1834.83,-190.75 1735.83,-190.75"/>
<text text-anchor="middle" x="1748.7" y="-246.95" font-family="Times,serif" font-size="14.00">A</text>
<polyline fill="none" stroke="black" points="1735.83,-239.75 1761.58,-239.75"/>
<text text-anchor="middle" x="1748.7" y="-222.45" font-family="Times,serif" font-size="14.00">B</text>
<polyline fill="none" stroke="black" points="1735.83,-215.25 1761.58,-215.25"/>
<text text-anchor="middle" x="1748.7" y="-197.95" font-family="Times,serif" font-size="14.00">S</text>
<polyline fill="none" stroke="black" points="1761.58,-190.75 1761.58,-264.25"/>
<text text-anchor="middle" x="1785.33" y="-230.7" font-family="Times,serif" font-size="14.00">$5</text>
<text text-anchor="middle" x="1785.33" y="-214.2" font-family="Times,serif" font-size="14.00">$mux</text>
<polyline fill="none" stroke="black" points="1809.08,-190.75 1809.08,-264.25"/>
<text text-anchor="middle" x="1821.95" y="-222.45" font-family="Times,serif" font-size="14.00">Y</text>
</g>
<!-- v4&#45;&gt;c34 -->
<g id="edge42" class="edge">
<title>v4:e&#45;&gt;c34:w</title>
<path fill="none" stroke="black" stroke-width="3" d="M1699.83,-288.5C1717.8,-288.5 1715.64,-265.77 1725.12,-256.19"/>
<polygon fill="black" stroke="black" stroke-width="3" points="1723.56,-260.56 1731.6,-253.65 1721.01,-254.04 1723.56,-260.56"/>
</g>
<!-- c34&#45;&gt;n8 -->
<g id="edge30" class="edge">
<title>c34:e&#45;&gt;n8:w</title>
<path fill="none" stroke="black" stroke-width="3" d="M1834.83,-227.5C1847.3,-227.5 1852.9,-227.5 1861.73,-227.5"/>
<polygon fill="black" stroke="black" stroke-width="3" points="1858.5,-231 1868.5,-227.5 1858.5,-224 1858.5,-231"/>
</g>
<!-- v5 -->
<g id="node28" class="node">
<title>v5</title>
<ellipse fill="none" stroke="black" cx="1499.31" cy="-193.5" rx="53.91" ry="18"/>
<text text-anchor="middle" x="1499.31" y="-188.45" font-family="Times,serif" font-size="14.00">8&#39;00000001</text>
</g>
<!-- v5&#45;&gt;c35 -->
<g id="edge43" class="edge">
<title>v5:e&#45;&gt;c35:w</title>
<path fill="none" stroke="black" stroke-width="3" d="M1554.44,-193.5C1571.82,-193.5 1575.58,-207.31 1587.42,-212.92"/>
<polygon fill="black" stroke="black" stroke-width="3" points="1583.46,-215.66 1593.97,-214.31 1584.92,-208.81 1583.46,-215.66"/>
</g>
<!-- c35&#45;&gt;c34 -->
<g id="edge21" class="edge">
<title>c35:e&#45;&gt;c34:w</title>
<path fill="none" stroke="black" stroke-width="3" d="M1693.42,-227.75C1707.85,-227.75 1713.99,-227.6 1724.54,-227.53"/>
<polygon fill="black" stroke="black" stroke-width="3" points="1721.3,-231.04 1731.28,-227.51 1721.27,-224.04 1721.3,-231.04"/>
</g>
<!-- v6 -->
<g id="node30" class="node">
<title>v6</title>
<ellipse fill="none" stroke="black" cx="1499.31" cy="-139.5" rx="53.91" ry="18"/>
<text text-anchor="middle" x="1499.31" y="-134.45" font-family="Times,serif" font-size="14.00">8&#39;00000001</text>
</g>
<!-- v6&#45;&gt;c36 -->
<g id="edge44" class="edge">
<title>v6:e&#45;&gt;c36:w</title>
<path fill="none" stroke="black" stroke-width="3" d="M1554.44,-139.5C1571.7,-139.5 1578.25,-144.42 1591.15,-146.42"/>
<polygon fill="black" stroke="black" stroke-width="3" points="1587.78,-149.68 1598.01,-146.92 1588.29,-142.7 1587.78,-149.68"/>
</g>
<!-- c36&#45;&gt;c34 -->
<g id="edge23" class="edge">
<title>c36:e&#45;&gt;c34:w</title>
<path fill="none" stroke="black" d="M1689.29,-159.75C1713.11,-159.75 1709.76,-190.54 1725.09,-200.16"/>
<polygon fill="black" stroke="black" points="1723.8,-203.44 1734.36,-202.61 1725.59,-196.67 1723.8,-203.44"/>
</g>
<!-- v8 -->
<g id="node32" class="node">
<title>v8</title>
<ellipse fill="none" stroke="black" cx="1217.7" cy="-247.5" rx="53.91" ry="18"/>
<text text-anchor="middle" x="1217.7" y="-242.45" font-family="Times,serif" font-size="14.00">8&#39;11111111</text>
</g>
<!-- c37 -->
<g id="node33" class="node">
<title>c37</title>
<polygon fill="none" stroke="black" points="1307.61,-210.75 1307.61,-284.25 1406.61,-284.25 1406.61,-210.75 1307.61,-210.75"/>
<text text-anchor="middle" x="1320.48" y="-266.95" font-family="Times,serif" font-size="14.00">A</text>
<polyline fill="none" stroke="black" points="1307.61,-259.75 1333.36,-259.75"/>
<text text-anchor="middle" x="1320.48" y="-242.45" font-family="Times,serif" font-size="14.00">B</text>
<polyline fill="none" stroke="black" points="1307.61,-235.25 1333.36,-235.25"/>
<text text-anchor="middle" x="1320.48" y="-217.95" font-family="Times,serif" font-size="14.00">S</text>
<polyline fill="none" stroke="black" points="1333.36,-210.75 1333.36,-284.25"/>
<text text-anchor="middle" x="1357.11" y="-250.7" font-family="Times,serif" font-size="14.00">$2</text>
<text text-anchor="middle" x="1357.11" y="-234.2" font-family="Times,serif" font-size="14.00">$mux</text>
<polyline fill="none" stroke="black" points="1380.86,-210.75 1380.86,-284.25"/>
<text text-anchor="middle" x="1393.73" y="-242.45" font-family="Times,serif" font-size="14.00">Y</text>
</g>
<!-- v8&#45;&gt;c37 -->
<g id="edge45" class="edge">
<title>v8:e&#45;&gt;c37:w</title>
<path fill="none" stroke="black" stroke-width="3" d="M1271.61,-247.5C1282.98,-247.5 1288.29,-247.5 1296.16,-247.5"/>
<polygon fill="black" stroke="black" stroke-width="3" points="1293.07,-251 1303.07,-247.5 1293.07,-244 1293.07,-251"/>
</g>
<!-- c37&#45;&gt;n9 -->
<g id="edge33" class="edge">
<title>c37:e&#45;&gt;n9:w</title>
<path fill="none" stroke="black" stroke-width="3" d="M1406.61,-247.5C1417.98,-247.5 1423.29,-247.5 1431.16,-247.5"/>
<polygon fill="black" stroke="black" stroke-width="3" points="1428.07,-251 1438.07,-247.5 1428.07,-244 1428.07,-251"/>
</g>
<!-- x7&#45;&gt;c37 -->
<g id="edge1" class="edge">
<title>x7:e&#45;&gt;c37:w</title>
<path fill="none" stroke="black" d="M1262.6,-194.89C1276.22,-200.62 1281.47,-215.07 1295.19,-220.7"/>
<polygon fill="none" stroke="black" points="1262.62,-194.9 1255.99,-197.71 1250.83,-192.67 1257.47,-189.85 1262.62,-194.9"/>
<polygon fill="none" stroke="black" points="1294.92,-220.65 1301.55,-217.81 1306.72,-222.84 1300.09,-225.68 1294.92,-220.65"/>
</g>
<!-- x9&#45;&gt;c37 -->
<g id="edge2" class="edge">
<title>x9:e&#45;&gt;c37:w</title>
<path fill="none" stroke="black" stroke-width="3" d="M1262.6,-300.11C1276.22,-294.38 1281.47,-279.93 1295.19,-274.3"/>
<polygon fill="none" stroke="black" stroke-width="3" points="1264.4,-299.77 1259.24,-304.81 1252.6,-302 1257.76,-296.95 1264.4,-299.77"/>
<polygon fill="none" stroke="black" stroke-width="3" points="1293.15,-274.68 1298.32,-269.65 1304.95,-272.49 1299.78,-277.52 1293.15,-274.68"/>
</g>
<!-- c38 -->
<g id="node36" class="node">
<title>c38</title>
<polygon fill="none" stroke="black" points="862.93,-171 862.93,-220 956.68,-220 956.68,-171 862.93,-171"/>
<text text-anchor="middle" x="875.8" y="-202.7" font-family="Times,serif" font-size="14.00">A</text>
<polyline fill="none" stroke="black" points="862.93,-195.5 888.68,-195.5"/>
<text text-anchor="middle" x="875.8" y="-178.2" font-family="Times,serif" font-size="14.00">B</text>
<polyline fill="none" stroke="black" points="888.68,-171 888.68,-220"/>
<text text-anchor="middle" x="909.8" y="-198.7" font-family="Times,serif" font-size="14.00">$1</text>
<text text-anchor="middle" x="909.8" y="-182.2" font-family="Times,serif" font-size="14.00">$add</text>
<polyline fill="none" stroke="black" points="930.93,-171 930.93,-220"/>
<text text-anchor="middle" x="943.8" y="-190.7" font-family="Times,serif" font-size="14.00">Y</text>
</g>
<!-- c38&#45;&gt;n10 -->
<g id="edge6" class="edge">
<title>c38:e&#45;&gt;n10:w</title>
<path fill="none" stroke="black" stroke-width="3" d="M956.68,-195.75C968.05,-195.75 973.36,-195.62 981.23,-195.55"/>
<polygon fill="black" stroke="black" stroke-width="3" points="978.15,-199.06 988.14,-195.52 978.12,-192.06 978.15,-199.06"/>
</g>
<!-- x10&#45;&gt;c38 -->
<g id="edge3" class="edge">
<title>x10:e&#45;&gt;c38:w</title>
<path fill="none" stroke="black" stroke-width="3" d="M838.73,-151.92C844.41,-158.95 845.53,-171.12 851.3,-178.04"/>
<polygon fill="none" stroke="black" stroke-width="3" points="840.29,-152.64 833.17,-153.77 829.38,-147.63 836.51,-146.5 840.29,-152.64"/>
<polygon fill="none" stroke="black" stroke-width="3" points="849.51,-177.24 856.62,-176.04 860.46,-182.14 853.35,-183.34 849.51,-177.24"/>
</g>
<!-- x11&#45;&gt;c38 -->
<g id="edge4" class="edge">
<title>x11:e&#45;&gt;c38:w</title>
<path fill="none" stroke="black" stroke-width="3" d="M839.71,-212.8C843.39,-211.77 846.54,-210.46 850.23,-209.43"/>
<polygon fill="none" stroke="black" stroke-width="3" points="841.5,-212.56 836.08,-217.32 829.61,-214.14 835.03,-209.39 841.5,-212.56"/>
<polygon fill="none" stroke="black" stroke-width="3" points="848.35,-209.68 853.77,-204.93 860.25,-208.1 854.82,-212.86 848.35,-209.68"/>
</g>
<!-- v12 -->
<g id="node39" class="node">
<title>v12</title>
<ellipse fill="none" stroke="black" cx="53.91" cy="-42.5" rx="27" ry="18"/>
<text text-anchor="middle" x="53.91" y="-37.45" font-family="Times,serif" font-size="14.00">1&#39;0</text>
</g>
<!-- x13 -->
<g id="node40" class="node">
<title>x13</title>
<ellipse fill="black" stroke="black" cx="197.73" cy="-42.5" rx="1.8" ry="1.8"/>
</g>
<!-- v12&#45;&gt;x13 -->
<g id="edge38" class="edge">
<title>v12:e&#45;&gt;x13:w</title>
<path fill="none" stroke="black" d="M82.16,-42.5C128.07,-42.5 142.31,-42.5 183.15,-42.5"/>
<polygon fill="black" stroke="black" points="182.94,-46 192.94,-42.5 182.94,-39 182.94,-46"/>
</g>
<!-- x13&#45;&gt;n6 -->
<g id="edge26" class="edge">
<title>x13:e&#45;&gt;n6:w</title>
<path fill="none" stroke="black" d="M201.01,-42.5C235.45,-42.5 246.79,-42.5 276.36,-42.5"/>
<polygon fill="black" stroke="black" points="276.13,-46 286.13,-42.5 276.13,-39 276.13,-46"/>
</g>
<!-- v14 -->
<g id="node41" class="node">
<title>v14</title>
<ellipse fill="none" stroke="black" cx="53.91" cy="-415.5" rx="53.91" ry="18"/>
<text text-anchor="middle" x="53.91" y="-410.45" font-family="Times,serif" font-size="14.00">8&#39;11111111</text>
</g>
<!-- x15 -->
<g id="node42" class="node">
<title>x15</title>
<ellipse fill="black" stroke="black" cx="197.73" cy="-415.5" rx="1.8" ry="1.8"/>
</g>
<!-- v14&#45;&gt;x15 -->
<g id="edge39" class="edge">
<title>v14:e&#45;&gt;x15:w</title>
<path fill="none" stroke="black" stroke-width="3" d="M107.82,-415.5C142.26,-415.5 153.6,-415.5 183.17,-415.5"/>
<polygon fill="black" stroke="black" stroke-width="3" points="179.91,-419 189.91,-415.5 179.91,-412 179.91,-419"/>
</g>
<!-- x15&#45;&gt;n16 -->
<g id="edge18" class="edge">
<title>x15:e&#45;&gt;n16:w</title>
<path fill="none" stroke="black" stroke-width="3" d="M201.01,-415.5C243.74,-415.5 257.17,-415.5 294.86,-415.5"/>
<polygon fill="black" stroke="black" stroke-width="3" points="291.64,-419 301.64,-415.5 291.64,-412 291.64,-419"/>
</g>
<!-- x16&#45;&gt;n17 -->
<g id="edge19" class="edge">
<title>x16:e&#45;&gt;n17:w</title>
<path fill="none" stroke="black" stroke-width="3" d="M798.96,-259.5C824.61,-259.5 833.73,-259.5 854.73,-259.5"/>
<polygon fill="black" stroke="black" stroke-width="3" points="851.58,-263 861.58,-259.5 851.58,-256 851.58,-263"/>
</g>
<!-- x17&#45;&gt;n19 -->
<g id="edge20" class="edge">
<title>x17:e&#45;&gt;n19:w</title>
<path fill="none" stroke="black" stroke-width="3" d="M826.93,-315.5C841.07,-315.5 847.17,-315.5 857.42,-315.5"/>
<polygon fill="black" stroke="black" stroke-width="3" points="854.37,-319 864.37,-315.5 854.37,-312 854.37,-319"/>
</g>
</g>
</svg>
