<?xml version="1.0" encoding="UTF-8" standalone="no"?>
<!DOCTYPE svg PUBLIC "-//W3C//DTD SVG 1.1//EN"
 "http://www.w3.org/Graphics/SVG/1.1/DTD/svg11.dtd">
<!-- Generated by graphviz version 12.2.1 (20241206.2353)
 -->
<!-- Title: tt_um_ex_drosen766 Pages: 1 -->
<svg width="399pt" height="447pt"
 viewBox="0.00 0.00 399.31 446.50" xmlns="http://www.w3.org/2000/svg" xmlns:xlink="http://www.w3.org/1999/xlink">
<g id="graph0" class="graph" transform="scale(1 1) rotate(0) translate(4 442.5)">
<title>tt_um_ex_drosen766</title>
<polygon fill="white" stroke="none" points="-4,4 -4,-442.5 395.31,-442.5 395.31,4 -4,4"/>
<text text-anchor="middle" x="195.66" y="-7.2" font-family="Times,serif" font-size="14.00">tt_um_ex_drosen766</text>
<!-- n1 -->
<g id="node1" class="node">
<title>n1</title>
<polygon fill="none" stroke="black" points="332.44,-60.5 273.57,-42.5 332.44,-24.5 391.31,-42.5 332.44,-60.5"/>
<text text-anchor="middle" x="332.44" y="-37.45" font-family="Times,serif" font-size="14.00">_unused</text>
</g>
<!-- n2 -->
<g id="node2" class="node">
<title>n2</title>
<polygon fill="none" stroke="black" points="85.67,-89.04 85.67,-103.96 67.07,-114.5 40.75,-114.5 22.15,-103.96 22.15,-89.04 40.75,-78.5 67.07,-78.5 85.67,-89.04"/>
<text text-anchor="middle" x="53.91" y="-91.45" font-family="Times,serif" font-size="14.00">rst_n</text>
</g>
<!-- n3 -->
<g id="node3" class="node">
<title>n3</title>
<polygon fill="none" stroke="black" points="80.91,-143.04 80.91,-157.96 65.09,-168.5 42.73,-168.5 26.91,-157.96 26.91,-143.04 42.73,-132.5 65.09,-132.5 80.91,-143.04"/>
<text text-anchor="middle" x="53.91" y="-145.45" font-family="Times,serif" font-size="14.00">clk</text>
</g>
<!-- n4 -->
<g id="node4" class="node">
<title>n4</title>
<polygon fill="none" stroke="black" points="80.91,-197.04 80.91,-211.96 65.09,-222.5 42.73,-222.5 26.91,-211.96 26.91,-197.04 42.73,-186.5 65.09,-186.5 80.91,-197.04"/>
<text text-anchor="middle" x="53.91" y="-199.45" font-family="Times,serif" font-size="14.00">ena</text>
</g>
<!-- n5 -->
<g id="node5" class="node">
<title>n5</title>
<polygon fill="none" stroke="black" points="371.4,-251.04 371.4,-265.96 348.58,-276.5 316.3,-276.5 293.48,-265.96 293.48,-251.04 316.3,-240.5 348.58,-240.5 371.4,-251.04"/>
<text text-anchor="middle" x="332.44" y="-253.45" font-family="Times,serif" font-size="14.00">uio_oe</text>
</g>
<!-- n6 -->
<g id="node6" class="node">
<title>n6</title>
<polygon fill="none" stroke="black" points="374.73,-305.04 374.73,-319.96 349.96,-330.5 314.92,-330.5 290.15,-319.96 290.15,-305.04 314.92,-294.5 349.96,-294.5 374.73,-305.04"/>
<text text-anchor="middle" x="332.44" y="-307.45" font-family="Times,serif" font-size="14.00">uio_out</text>
</g>
<!-- n7 -->
<g id="node7" class="node">
<title>n7</title>
<polygon fill="none" stroke="black" points="91.21,-359.04 91.21,-373.96 69.36,-384.5 38.46,-384.5 16.61,-373.96 16.61,-359.04 38.46,-348.5 69.36,-348.5 91.21,-359.04"/>
<text text-anchor="middle" x="53.91" y="-361.45" font-family="Times,serif" font-size="14.00">uio_in</text>
</g>
<!-- c13 -->
<g id="node10" class="node">
<title>c13</title>
<polygon fill="none" stroke="black" points="143.82,-369 143.82,-418 237.57,-418 237.57,-369 143.82,-369"/>
<text text-anchor="middle" x="156.7" y="-400.7" font-family="Times,serif" font-size="14.00">A</text>
<polyline fill="none" stroke="black" points="143.82,-393.5 169.57,-393.5"/>
<text text-anchor="middle" x="156.7" y="-376.2" font-family="Times,serif" font-size="14.00">B</text>
<polyline fill="none" stroke="black" points="169.57,-369 169.57,-418"/>
<text text-anchor="middle" x="190.7" y="-396.7" font-family="Times,serif" font-size="14.00">$1</text>
<text text-anchor="middle" x="190.7" y="-380.2" font-family="Times,serif" font-size="14.00">$add</text>
<polyline fill="none" stroke="black" points="211.82,-369 211.82,-418"/>
<text text-anchor="middle" x="224.7" y="-388.7" font-family="Times,serif" font-size="14.00">Y</text>
</g>
<!-- n7&#45;&gt;c13 -->
<g id="edge4" class="edge">
<title>n7:e&#45;&gt;c13:w</title>
<path fill="none" stroke="black" stroke-width="3" d="M92.56,-366.5C112.01,-366.5 118.09,-376.43 132.73,-379.99"/>
<polygon fill="black" stroke="black" stroke-width="3" points="128.98,-383.09 139.31,-380.74 129.77,-376.13 128.98,-383.09"/>
</g>
<!-- n8 -->
<g id="node8" class="node">
<title>n8</title>
<polygon fill="none" stroke="black" points="371.96,-386.04 371.96,-400.96 348.81,-411.5 316.07,-411.5 292.92,-400.96 292.92,-386.04 316.07,-375.5 348.81,-375.5 371.96,-386.04"/>
<text text-anchor="middle" x="332.44" y="-388.45" font-family="Times,serif" font-size="14.00">uo_out</text>
</g>
<!-- n9 -->
<g id="node9" class="node">
<title>n9</title>
<polygon fill="none" stroke="black" points="86.23,-413.04 86.23,-427.96 67.3,-438.5 40.53,-438.5 21.6,-427.96 21.6,-413.04 40.53,-402.5 67.3,-402.5 86.23,-413.04"/>
<text text-anchor="middle" x="53.91" y="-415.45" font-family="Times,serif" font-size="14.00">ui_in</text>
</g>
<!-- n9&#45;&gt;c13 -->
<g id="edge6" class="edge">
<title>n9:e&#45;&gt;c13:w</title>
<path fill="none" stroke="black" stroke-width="3" d="M87.53,-420.5C109.15,-420.5 115.89,-410.19 132.62,-406.81"/>
<polygon fill="black" stroke="black" stroke-width="3" points="129.68,-410.61 139.3,-406.18 129.01,-403.64 129.68,-410.61"/>
</g>
<!-- c13&#45;&gt;n8 -->
<g id="edge5" class="edge">
<title>c13:e&#45;&gt;n8:w</title>
<path fill="none" stroke="black" stroke-width="3" d="M237.57,-393.75C257.25,-393.75 264.82,-393.58 280.15,-393.52"/>
<polygon fill="black" stroke="black" stroke-width="3" points="277.02,-397.03 287.01,-393.51 277.01,-390.03 277.02,-397.03"/>
</g>
<!-- v0 -->
<g id="node11" class="node">
<title>v0</title>
<ellipse fill="none" stroke="black" cx="53.91" cy="-42.5" rx="27" ry="18"/>
<text text-anchor="middle" x="53.91" y="-37.45" font-family="Times,serif" font-size="14.00">1&#39;0</text>
</g>
<!-- x1 -->
<g id="node12" class="node">
<title>x1</title>
<ellipse fill="black" stroke="black" cx="190.7" cy="-42.5" rx="1.8" ry="1.8"/>
</g>
<!-- v0&#45;&gt;x1 -->
<g id="edge7" class="edge">
<title>v0:e&#45;&gt;x1:w</title>
<path fill="none" stroke="black" d="M82.16,-42.5C124.92,-42.5 138.37,-42.5 176.09,-42.5"/>
<polygon fill="black" stroke="black" points="175.9,-46 185.9,-42.5 175.9,-39 175.9,-46"/>
</g>
<!-- x1&#45;&gt;n1 -->
<g id="edge1" class="edge">
<title>x1:e&#45;&gt;n1:w</title>
<path fill="none" stroke="black" d="M193.97,-42.5C225.2,-42.5 235.76,-42.5 262.14,-42.5"/>
<polygon fill="black" stroke="black" points="262.06,-46 272.06,-42.5 262.06,-39 262.06,-46"/>
</g>
<!-- v2 -->
<g id="node13" class="node">
<title>v2</title>
<ellipse fill="none" stroke="black" cx="53.91" cy="-258.5" rx="53.91" ry="18"/>
<text text-anchor="middle" x="53.91" y="-253.45" font-family="Times,serif" font-size="14.00">8&#39;00000000</text>
</g>
<!-- x3 -->
<g id="node14" class="node">
<title>x3</title>
<ellipse fill="black" stroke="black" cx="190.7" cy="-258.5" rx="1.8" ry="1.8"/>
</g>
<!-- v2&#45;&gt;x3 -->
<g id="edge8" class="edge">
<title>v2:e&#45;&gt;x3:w</title>
<path fill="none" stroke="black" stroke-width="3" d="M107.82,-258.5C139.05,-258.5 149.6,-258.5 175.99,-258.5"/>
<polygon fill="black" stroke="black" stroke-width="3" points="172.88,-262 182.88,-258.5 172.88,-255 172.88,-262"/>
</g>
<!-- x3&#45;&gt;n5 -->
<g id="edge2" class="edge">
<title>x3:e&#45;&gt;n5:w</title>
<path fill="none" stroke="black" stroke-width="3" d="M193.97,-258.5C233.5,-258.5 246.16,-258.5 280.65,-258.5"/>
<polygon fill="black" stroke="black" stroke-width="3" points="277.57,-262 287.57,-258.5 277.57,-255 277.57,-262"/>
</g>
<!-- v4 -->
<g id="node15" class="node">
<title>v4</title>
<ellipse fill="none" stroke="black" cx="53.91" cy="-312.5" rx="53.91" ry="18"/>
<text text-anchor="middle" x="53.91" y="-307.45" font-family="Times,serif" font-size="14.00">8&#39;00000000</text>
</g>
<!-- x5 -->
<g id="node16" class="node">
<title>x5</title>
<ellipse fill="black" stroke="black" cx="190.7" cy="-312.5" rx="1.8" ry="1.8"/>
</g>
<!-- v4&#45;&gt;x5 -->
<g id="edge9" class="edge">
<title>v4:e&#45;&gt;x5:w</title>
<path fill="none" stroke="black" stroke-width="3" d="M107.82,-312.5C139.05,-312.5 149.6,-312.5 175.99,-312.5"/>
<polygon fill="black" stroke="black" stroke-width="3" points="172.88,-316 182.88,-312.5 172.88,-309 172.88,-316"/>
</g>
<!-- x5&#45;&gt;n6 -->
<g id="edge3" class="edge">
<title>x5:e&#45;&gt;n6:w</title>
<path fill="none" stroke="black" stroke-width="3" d="M193.97,-312.5C231.99,-312.5 244.27,-312.5 277.26,-312.5"/>
<polygon fill="black" stroke="black" stroke-width="3" points="274.22,-316 284.22,-312.5 274.22,-309 274.22,-316"/>
</g>
</g>
</svg>
